<?xml version="1.0" encoding="UTF-8" standalone="no"?>
<svg viewBox="0 0 32 32" xmlns="http://www.w3.org/2000/svg">
  <g transform="matrix(0.17967039,0,0,0.19843745,215.77844,18.516243)">
    <g transform="matrix(1.07145,0,0,1.07009,-1903.25,1167.5)">
      <path fill="#000000" d="m 738.55408,-1159.391 c -23.0893,0.5014 -33.4426,26.4975 -16.3426,46.6849 2.48,2.9446 2.7359,4.6344 -1.8062,1.806 -11.5129,-7.6989 -33.5886,-2.6377 -34.7192,20.8991 -1.3963,29.0006 39.125,37.3565 46.7331,6.5189 0.4019,-3.2536 3.0459,-3.1794 2.4085,1.4389 -0.6937,12.5349 -4.6084,24.2506 -9.989,35.6753 9.0687,0 19.2038,0 27.4493,0 -5.3804,-11.4247 -9.2951,-23.1404 -9.9888,-35.6753 -0.6376,-4.6183 2.0067,-4.6925 2.4082,-1.4389 7.6084,30.8376 48.1297,22.4817 46.7332,-6.5189 -1.1301,-23.5368 -23.2061,-28.598 -34.7192,-20.8991 -4.5421,2.8284 -4.286,1.1386 -1.8059,-1.806 17.0999,-20.1874 6.7466,-46.1834 -16.3425,-46.6849 0,-10e-5 0,2e-4 -0.024,0 z" />
    </g>
  </g>
</svg>
