<?xml version="1.0" encoding="UTF-8" standalone="no"?>
<svg viewBox="0 0 32 32" xmlns="http://www.w3.org/2000/svg">
  <g transform="matrix(0.21246123,0,0,0.19843741,196.99804,-73.277152)">
    <g transform="matrix(1.06667,0,0,1.06667,-1918.87,1495.37)">
      <path fill="#d1322d" d="m 1000.2709,-923.43154 c 0,0 -11.0227,-18.08373 -25.8918,-39.34538 -9.9472,-14.22813 -17.8998,-29.63455 -18.6392,-42.90478 -0.848,-15.159 7.1792,-30.367 21.7119,-31.1041 14.524,-0.7366 20.4193,11.6883 22.8191,21.9321 2.4,-10.2438 8.2953,-22.6687 22.8193,-21.9321 14.5327,0.7371 22.5599,15.9451 21.7119,31.1041 -0.7394,13.27023 -8.6919,28.67665 -18.6391,42.90478 -14.8691,21.26165 -25.8921,39.34538 -25.8921,39.34538 z" />
    </g>
  </g>
</svg>
