<?xml version="1.0" encoding="UTF-8" standalone="no"?>
<svg viewBox="0 0 32 32" xmlns="http://www.w3.org/2000/svg">
  <path fill="#888888" d="m 24.672337,25 h -4.175381 c -0.271942,0 -0.49254,-0.0658 -0.661031,-0.197778 -0.168492,-0.131977 -0.301989,-0.288298 -0.401638,-0.46934 l -3.607152,-6.299961 c -0.06619,0.181803 -0.140346,0.337361 -0.222119,0.46934 l -3.360308,5.830621 c -0.115624,0.165068 -0.251405,0.317204 -0.407726,0.45679 C 11.680662,24.930018 11.478701,25 11.23148,25 H 7.3276631 L 13.121391,15.735283 7.5501625,7.0003802 h 4.1753805 c 0.271562,0 0.47162,0.03537 0.599416,0.1049738 0.127414,0.070366 0.241136,0.1875082 0.339645,0.3521956 l 3.582809,6.0656724 c 0.04108,-0.106496 0.08824,-0.209948 0.142247,-0.308836 0.05324,-0.09965 0.11296,-0.201961 0.17914,-0.309218 L 19.70661,7.519165 C 19.822612,7.3377423 19.943183,7.2061443 20.070975,7.1236105 20.19877,7.0410767 20.356992,7 20.546782,7 h 4.002704 l -5.646156,8.562227 z" />
</svg>
