<?xml version="1.0" encoding="UTF-8" standalone="no"?>
<svg viewBox="0 0 32 32" xmlns="http://www.w3.org/2000/svg">
  <g transform="matrix(0.27849612,0,0,0.26458332,354.93857,-170.63637)">
    <g transform="matrix(1.06667,0,0,1.06667,-1888.73,1220.88)">
      <path fill="#000000" d="m 629.71531,-525.78303 c -16.3452,23.30979 -33.8344,36.72373 -34.125,54.90927 -0.098,5.88879 3.0864,15.89775 13.059,17.81353 6.4701,1.2372 15.3782,-3.99946 15.5642,-14.63827 -0.029,-2.11811 2.2426,-2.06306 2.2215,0.83926 -0.3048,8.3918 -2.9612,18.16215 -7.4258,26.11532 7.1375,0 14.2748,0 21.4122,0 -4.4646,-7.95317 -7.1209,-17.72352 -7.4257,-26.11532 -0.021,-2.90232 2.2498,-2.95737 2.2215,-0.83926 0.186,10.63881 9.094,15.87547 15.5641,14.63827 9.9726,-1.91578 13.1564,-11.92474 13.059,-17.81353 -0.2905,-18.18554 -17.7798,-31.59948 -34.125,-54.90927 z" />
    </g>
  </g>
</svg>
