<svg xmlns="http://www.w3.org/2000/svg" viewBox="0 0 512 512"><path fill="#52a329" d="m 41.0579,127.8395 c -17.931505,6.8556 -30.436371,24.90872 -30.436371,45.13278 V 465.4784 c 0,26.85116 21.82453,48.78912 49.075696,48.78912 H 452.30279 c 27.25115,0 49.07568,-21.93796 49.07568,-48.78912 V 172.97228 c 0,-27.07968 -21.82453,-48.78911 -49.07568,-48.78911 H 165.16277 L 367.83596,42.715632 351.20213,2.2675186 Z m 101.6905,338.32446 c -41.76153,0 -75.501067,-32.67841 -75.501067,-73.12653 0,-40.4481 33.739537,-73.12653 75.501067,-73.12653 41.76152,0 75.50106,32.67843 75.50106,73.12653 0,40.44812 -33.73954,73.12653 -75.50106,73.12653 z M 444.75267,270.43623 h -37.75053 v -52.78821 h -52.85076 v 52.78821 H 67.247333 V 172.97228 H 444.75267 z" /></svg>
