<svg xmlns="http://www.w3.org/2000/svg" viewBox="0 0 32 32"><path fill="#cccccc" d="M 18,8.5 V 0 H 5.5 C 4.66875,0 4,0.66875 4,1.5 v 29 C 4,31.33125 4.66875,32 5.5,32 h 21 C 27.33125,32 28,31.33125 28,30.5 V 10 H 19.5 C 18.675,10 18,9.325 18,8.5 Z m 4,14.75 C 22,23.6625 21.6625,24 21.25,24 H 10.75 C 10.3375,24 10,23.6625 10,23.25 v -0.5 C 10,22.3375 10.3375,22 10.75,22 h 10.5 c 0.4125,0 0.75,0.3375 0.75,0.75 z m 0,-4 C 22,19.6625 21.6625,20 21.25,20 H 10.75 C 10.3375,20 10,19.6625 10,19.25 v -0.5 C 10,18.3375 10.3375,18 10.75,18 h 10.5 c 0.4125,0 0.75,0.3375 0.75,0.75 z m 0,-4.5 v 0.5 C 22,15.6625 21.6625,16 21.25,16 H 10.75 C 10.3375,16 10,15.6625 10,15.25 v -0.5 C 10,14.3375 10.3375,14 10.75,14 h 10.5 C 21.6625,14 22,14.3375 22,14.75 Z M 28,7.61875 V 8 H 20 V 0 h 0.38125 c 0.4,0 0.78125,0.15625 1.0625,0.4375 l 6.11875,6.125 C 27.84375,6.84375 28,7.225 28,7.61875 Z" /></svg>
