<svg xmlns="http://www.w3.org/2000/svg" viewBox="0 0 32 32"><path fill="#a3daf5" d="M 28,7.62131 V 8 H 20 V 0 h 0.37869 a 1.5,1.5 0 0 1 1.06062,0.43931 l 6.12132,6.12131 A 1.500125,1.500125 0 0 1 28,7.62131 Z M 19.5,10 C 18.675,10 18,9.325 18,8.5 V 0 H 5.5 C 4.67156,0 4,0.67156 4,1.5 v 29 C 4,31.32844 4.67156,32 5.5,32 h 21 C 27.32844,32 28,31.32844 28,30.5 V 10 Z m -8.46594,1 c 1.65688,0 3,1.34312 3,3 0,1.65688 -1.34312,3 -3,3 -1.65687,0 -3,-1.34312 -3,-3 0,-1.65688 1.34319,-3 3,-3 z m 13,15 h -16 L 8.06436,22.96969 10.53405,20.5 c 0.29288,-0.29287 0.73744,-0.26256 1.03031,0.0303 l 2.46969,2.46969 6.46969,-6.46969 c 0.29287,-0.29287 0.76775,-0.29287 1.06069,0 L 24.03406,19 Z" /></svg>
