<svg xmlns="http://www.w3.org/2000/svg" viewBox="0 0 32 32"><path fill="#a3f5a3" d="M 18,8.5 V 0 H 5.5 C 4.66875,0 4,0.66875 4,1.5 v 29 C 4,31.33125 4.66875,32 5.5,32 h 21 C 27.33125,32 28,31.33125 28,30.5 V 10 H 19.5 C 18.675,10 18,9.325 18,8.5 Z m -4,16.75 c 0,0.66875 -0.80625,1 -1.28125,0.53125 L 10.5,23.5 H 8.75 C 8.3375,23.5 8,23.1625 8,22.75 v -3.5 C 8,18.8375 8.3375,18.5 8.75,18.5 h 1.75 l 2.21875,-2.28125 C 13.19375,15.74375 14,16.08125 14,16.75 Z m 2.075,-2.975 c 0.56875,-0.58125 0.56875,-1.50625 0,-2.0875 -1.38125,-1.425 0.7625,-3.5125 2.15,-2.09375 1.7,1.74375 1.7,4.525 0,6.275 -1.3625,1.39375 -3.55625,-0.65 -2.15,-2.09375 z m 5.375,-7.31875 c 3.4,3.49375 3.4,9.05 0,12.55 -1.3625,1.4 -3.5625,-0.64375 -2.15,-2.09375 2.2625,-2.325 2.26875,-6.03125 0,-8.3625 -1.38125,-1.425 0.76875,-3.51875 2.15,-2.09375 z M 28,7.61875 V 8 H 20 V 0 h 0.38125 c 0.4,0 0.78125,0.15625 1.0625,0.4375 l 6.11875,6.125 C 27.84375,6.84375 28,7.225 28,7.61875 Z" /></svg>
