<svg xmlns="http://www.w3.org/2000/svg" viewBox="0 0 512 512"><path fill="#eacf00" d="m 256.01132,416.01826 a 32.001422,32.001414 0 0 1 32.00142,32.00142 v 32.00142 a 32.001422,32.001414 0 0 1 -64.00284,0 v -32.00142 a 32.001422,32.001414 0 0 1 32.00142,-32.00142 z m 0,-320.014135 A 32.001422,32.001414 0 0 1 224.0099,64.002712 V 32.001297 a 32.001422,32.001414 0 0 1 64.00284,0 V 64.002712 A 32.001422,32.001414 0 0 1 256.01132,96.004125 Z M 480.02127,224.00978 a 32.001423,32.001415 0 0 1 0,64.00283 h -32.00142 a 32.001423,32.001415 0 0 1 0,-64.00283 z M 96.004209,256.0112 A 32.001422,32.001414 0 0 1 64.002788,288.01261 H 32.001367 a 32.001423,32.001415 0 0 1 0,-64.00283 h 32.001421 a 32.001422,32.001414 0 0 1 32.001421,32.00142 z m 318.414151,113.15699 22.62499,22.625 a 32.001422,32.001414 0 0 1 -45.25,45.25001 l -22.62501,-22.625 a 32.001422,32.001414 0 0 1 45.25002,-45.25001 z M 97.60428,142.8542 74.979275,120.2292 A 31.996592,31.996585 0 1 1 120.22929,74.979196 l 22.625,22.625 A 31.99659,31.996583 0 1 1 97.60428,142.8542 Z m 316.81408,0 A 31.996594,31.996587 0 1 1 369.16834,97.604196 l 22.62501,-22.625 a 31.996589,31.996582 0 1 1 45.25,45.250004 z M 97.60428,369.16819 a 32.001422,32.001414 0 0 1 45.25001,45.25001 l -22.625,22.625 A 32.001422,32.001414 0 0 1 74.979275,391.79319 Z M 256.01132,128.00554 a 128.00569,128.00566 0 1 0 0,256.01131 128.00569,128.00566 0 0 0 0,-256.01131 z m 0,208.0092 a 80.003558,80.00354 0 1 1 0,-160.00708 80.003558,80.00354 0 0 1 0,160.00708 z" /></svg>
