<svg xmlns="http://www.w3.org/2000/svg" viewBox="0 0 32 32"><path fill="#777777" d="m 16,8.8888889 c -3.928889,0 -7.1111111,3.1822221 -7.1111111,7.1111111 0,3.928889 3.1822221,7.111111 7.1111111,7.111111 3.928889,0 7.111111,-3.182222 7.111111,-7.111111 0,-3.928889 -3.182222,-7.1111111 -7.111111,-7.1111111 z M 3.5555556,21.333333 H 0 v 7.111111 C 0,30.408889 1.5911111,32 3.5555556,32 H 10.666667 V 28.444444 H 3.5555556 Z m 0,-17.7777774 H 10.666667 V 0 H 3.5555556 C 1.5911111,0 0,1.5911111 0,3.5555556 V 10.666667 H 3.5555556 Z M 28.444444,0 h -7.111111 v 3.5555556 h 7.111111 V 10.666667 H 32 V 3.5555556 C 32,1.5911111 30.408889,0 28.444444,0 Z m 0,28.444444 H 21.333333 V 32 h 7.111111 C 30.408889,32 32,30.408889 32,28.444444 v -7.111111 h -3.555556 z" /></svg>
