<svg xmlns="http://www.w3.org/2000/svg" viewBox="0 0 32 32"><path fill="#f5a3a3" d="m 15.36875,16.00625 c -0.3125,-1 -0.30625,-2.93125 -0.125,-2.93125 0.525,0 0.475,2.30625 0.125,2.93125 z m -0.10625,2.95 c -0.48125,1.2625 -1.08125,2.70625 -1.775,3.91875 1.14375,-0.4375 2.4375,-1.075 3.93125,-1.36875 -0.79375,-0.6 -1.55625,-1.4625 -2.15625,-2.55 z m -5.88125,7.8 c 0,0.05 0.825,-0.3375 2.18125,-2.5125 -0.41875,0.39375 -1.81875,1.53125 -2.18125,2.5125 z M 19.5,10 H 28 V 30.5 C 28,31.33125 27.33125,32 26.5,32 H 5.5 C 4.66875,32 4,31.33125 4,30.5 V 1.5 C 4,0.66875 4.66875,0 5.5,0 H 18 v 8.5 c 0,0.825 0.675,1.5 1.5,1.5 z M 19,20.7375 C 17.75,19.975 16.91875,18.925 16.33125,17.375 c 0.28125,-1.15625 0.725,-2.9125 0.3875,-4.0125 -0.29375,-1.8375 -2.65,-1.65625 -2.9875,-0.425 -0.3125,1.14375 -0.025,2.75625 0.50625,4.8125 -0.725,1.725 -1.79375,4.0375 -2.55,5.3625 -0.006,0 -0.006,0.006 -0.0125,0.006 -1.69375,0.86875 -4.6,2.78125 -3.40625,4.25 0.35,0.43125 1,0.625 1.34375,0.625 1.11875,0 2.23125,-1.125 3.81875,-3.8625 1.6125,-0.53125 3.38125,-1.19375 4.9375,-1.45 1.35625,0.7375 2.94375,1.21875 4,1.21875 1.825,0 1.95,-2 1.23125,-2.7125 -0.86875,-0.85 -3.39375,-0.60625 -4.6,-0.45 z m 8.5625,-14.175 -6.125,-6.125 C 21.15625,0.15625 20.775,0 20.375,0 H 20 v 8 h 8 V 7.61875 C 28,7.225 27.84375,6.84375 27.5625,6.5625 Z M 22.93125,22.51875 C 23.1875,22.35 22.775,21.775 20.25625,21.95625 c 2.31875,0.9875 2.675,0.5625 2.675,0.5625 z" /></svg>
