<!--
<svg xmlns="http://www.w3.org/2000/svg" viewBox="0 0 32 32">
<g transform="matrix(1.2307692,0,0,1.2307692,-4.9230764,-3.6923072)">
<path fill="#777777" d="M 18.83,6.83 16,4 4,16 16,28 18.83,25.17 9.66,16 Z" />
<path fill="#777777" d="M 30,6.83 27.17,4 l -12,12 12,12 L 30,25.17 20.83,16 Z" />
</g>
</svg>
-->


<svg xmlns="http://www.w3.org/2000/svg" viewBox="0 0 32 32">
<g transform="matrix(1.1384615,0,0,1.1384615,-3.3538455,-2.215384)">
<path fill="#777777" d="M 18.83,6.83 16,4 4,16 16,28 18.83,25.17 9.66,16 Z" />
<path fill="#777777" d="M 30,6.83 27.17,4 l -12,12 12,12 L 30,25.17 20.83,16 Z" />
</g>
</svg>
