<svg xmlns="http://www.w3.org/2000/svg" viewBox="0 0 32 32"><path fill="#777777" d="m 32,29.25052 q 0,0.43064 -0.32064,0.7619 l -1.60321,1.65632 Q 29.75551,32 29.33868,32 28.92184,32 28.6012,31.66874 L 16,18.6501 3.3987998,31.66874 Q 3.0781598,32 2.6613198,32 q -0.41683,0 -0.73747,-0.33126 l -1.60321,-1.65632 Q -2e-7,29.68116 -2e-7,29.25052 q 0,-0.43064 0.32064,-0.76191 L 15.26253,13.05176 Q 15.58317,12.7205 16,12.7205 q 0.41683,0 0.73747,0.33126 L 31.67936,28.48861 Q 32,28.81988 32,29.25052 Z m 0,-12.7205 q 0,0.43064 -0.32064,0.76191 l -1.60321,1.65631 q -0.32064,0.33126 -0.73747,0.33126 -0.41684,0 -0.73748,-0.33126 L 16,5.9296103 3.3987998,18.94824 q -0.32064,0.33126 -0.73748,0.33126 -0.41683,0 -0.73747,-0.33126 l -1.60321,-1.65631 Q -2e-7,16.96066 -2e-7,16.53002 q 0,-0.43064 0.32064,-0.7619 L 15.26253,0.33125975 Q 15.58317,-2.5e-7 16,-2.5e-7 q 0.41683,0 0.73747,0.33126 L 31.67936,15.76812 Q 32,16.09938 32,16.53002 Z" /></svg>
