<svg xmlns="http://www.w3.org/2000/svg" viewBox="0 0 32 32"><path fill="#777777" d="m 25.408025,25.251318 c -0.33403,0 -0.6679,-0.105726 -0.92281,-0.317132 -0.50961,-0.422947 -0.50961,-1.108606 0,-1.531552 2.38268,-1.977377 3.69493,-4.606252 3.69493,-7.402573 0,-2.79629 -1.31225,-5.42523 -3.69493,-7.4025391 -0.50961,-0.422973 -0.50961,-1.108653 0,-1.531567 0.50961,-0.422914 1.33595,-0.422914 1.84556,0 2.87565,2.386413 4.45939,5.5592781 4.45939,8.9341061 0,3.374808 -1.58374,6.547656 -4.45939,8.93408 -0.2548,0.211451 -0.58878,0.317177 -0.92275,0.317177 z m -4.63579,-2.042085 c -0.33403,0 -0.66789,-0.105725 -0.9228,-0.317132 -0.50961,-0.422902 -0.50961,-1.108606 0,-1.531552 3.56176,-2.955742 3.56176,-7.765144 0,-10.720897 -0.50961,-0.422974 -0.50961,-1.1086541 0,-1.5315671 0.50961,-0.422855 1.33595,-0.422914 1.84556,0 2.21835,1.8408201 3.44006,4.2884531 3.44006,6.8919171 0,2.603435 -1.22171,5.051088 -3.44006,6.89201 -0.25481,0.211496 -0.58878,0.317221 -0.92276,0.317221 z m -4.63578,-2.042084 c -0.33403,0 -0.66795,-0.105726 -0.9228,-0.317177 -0.50967,-0.422946 -0.50967,-1.10856 0,-1.531507 2.20492,-1.829782 2.20492,-4.807025 0,-6.636744 -0.50967,-0.422944 -0.50967,-1.108653 0,-1.531537 0.50965,-0.422914 1.33589,-0.422914 1.84555,0 3.22256,2.674268 3.22256,7.025607 0,9.699878 -0.2548,0.211361 -0.58878,0.317087 -0.92275,0.317087 z m -3.61635,4.940621 a 0.86960031,0.72164489 0 0 1 -0.61537,-0.211495 L 5.1995249,20.331904 h -3.11968 c -0.48047,0 -0.87001,-0.323224 -0.87001,-0.721983 v -7.219835 c 0,-0.398717 0.38954,-0.721989 0.87001,-0.721989 h 3.11968 L 11.904735,6.1036999 a 0.86989936,0.72189306 0 0 1 0.94814,-0.156487 0.86998092,0.7219608 0 0 1 0.53707,0.667019 V 25.385787 a 0.86992654,0.72191562 0 0 1 -0.86984,0.721983 z" /></svg>
